<svg width="258" height="47" viewBox="0 0 258 47" fill="none" xmlns="http://www.w3.org/2000/svg">
<path d="M38.1008 0.443031H0V7.13282H15.0631V31.4553H23.0377V7.13282H38.1008V0.443031Z" fill="#FE724E"/>
<path d="M38.8086 15.9049C38.8086 26.2275 44.6566 31.8983 58.302 31.8983C70.6626 31.8983 76.865 27.1579 77.6625 18.1643H69.555C68.8018 23.2149 64.9032 25.2085 58.302 25.2085C50.2388 25.2085 46.7831 22.2845 46.7831 15.9049C46.7831 9.56949 50.1945 6.68978 58.302 6.68978C64.9475 6.68978 68.8018 8.63912 69.555 13.6454H77.6625C76.865 4.69614 70.6626 0 58.302 0C44.6566 0 38.8086 5.62651 38.8086 15.9049Z" fill="#FE724E"/>
<path fill-rule="evenodd" clip-rule="evenodd" d="M75.2904 47H3V41.3699H75.2904V47Z" fill="#FE724E"/>
<path d="M112.347 12.9438V17.248H106.503V34.9986H101.131V17.248H95.2874V12.9438H112.347Z" fill="#FE724E"/>
<path d="M113.975 26.2019C113.975 24.4006 114.31 22.8193 114.98 21.4579C115.671 20.0965 116.603 19.0492 117.776 18.3162C118.949 17.5831 120.258 17.2166 121.703 17.2166C122.939 17.2166 124.018 17.4679 124.939 17.9706C125.882 18.4733 126.605 19.133 127.107 19.9499V17.4679H132.48V34.9986H127.107V32.5167C126.584 33.3335 125.851 33.9933 124.908 34.496C123.986 34.9986 122.908 35.25 121.672 35.25C120.248 35.25 118.949 34.8834 117.776 34.1504C116.603 33.3964 115.671 32.3387 114.98 30.9773C114.31 29.5949 113.975 28.0031 113.975 26.2019ZM127.107 26.2333C127.107 24.8928 126.73 23.8351 125.976 23.0602C125.243 22.2852 124.343 21.8977 123.274 21.8977C122.206 21.8977 121.295 22.2852 120.541 23.0602C119.808 23.8142 119.441 24.8614 119.441 26.2019C119.441 27.5423 119.808 28.6105 120.541 29.4064C121.295 30.1814 122.206 30.5688 123.274 30.5688C124.343 30.5688 125.243 30.1814 125.976 29.4064C126.73 28.6314 127.107 27.5737 127.107 26.2333Z" fill="#FE724E"/>
<path d="M143.498 35.25C141.969 35.25 140.607 34.9882 139.414 34.4646C138.22 33.9409 137.277 33.2288 136.586 32.3282C135.895 31.4066 135.507 30.3803 135.424 29.2493H140.733C140.796 29.8567 141.079 30.3489 141.581 30.7259C142.084 31.1029 142.702 31.2914 143.435 31.2914C144.105 31.2914 144.618 31.1658 144.974 30.9144C145.351 30.6421 145.54 30.2966 145.54 29.8777C145.54 29.375 145.278 29.0085 144.755 28.7781C144.231 28.5267 143.383 28.2544 142.21 27.9612C140.953 27.668 139.906 27.3643 139.068 27.0501C138.23 26.715 137.508 26.2019 136.9 25.5107C136.293 24.7986 135.989 23.8456 135.989 22.6517C135.989 21.6464 136.261 20.7353 136.806 19.9184C137.372 19.0807 138.188 18.4209 139.257 17.9392C140.346 17.4574 141.634 17.2166 143.121 17.2166C145.32 17.2166 147.048 17.7611 148.305 18.8503C149.582 19.9394 150.315 21.3846 150.504 23.1858H145.54C145.456 22.5784 145.184 22.0967 144.723 21.7406C144.283 21.3846 143.697 21.2065 142.964 21.2065C142.335 21.2065 141.854 21.3322 141.519 21.5835C141.183 21.8139 141.016 22.1386 141.016 22.5575C141.016 23.0602 141.278 23.4372 141.801 23.6885C142.346 23.9398 143.184 24.1912 144.315 24.4425C145.613 24.7776 146.671 25.1127 147.488 25.4478C148.305 25.762 149.017 26.2856 149.624 27.0187C150.253 27.7308 150.577 28.6943 150.598 29.9091C150.598 30.9354 150.305 31.8569 149.718 32.6738C149.153 33.4697 148.326 34.098 147.236 34.5588C146.168 35.0196 144.922 35.25 143.498 35.25Z" fill="#FE724E"/>
<path d="M163.656 30.4432V34.9986H160.922C158.974 34.9986 157.456 34.5274 156.367 33.5849C155.278 32.6214 154.733 31.061 154.733 28.9037V21.9291H152.597V17.4679H154.733V13.1952H160.105V17.4679H163.624V21.9291H160.105V28.9666C160.105 29.4902 160.231 29.8672 160.482 30.0976C160.734 30.328 161.153 30.4432 161.739 30.4432H163.656Z" fill="#FE724E"/>
<path d="M183.173 25.9505C183.173 26.4532 183.142 26.9768 183.079 27.5214H170.921C171.005 28.6105 171.35 29.4483 171.958 30.0347C172.586 30.6003 173.35 30.883 174.251 30.883C175.591 30.883 176.524 30.3175 177.047 29.1865H182.765C182.472 30.3384 181.938 31.3752 181.163 32.2968C180.409 33.2183 179.456 33.9409 178.304 34.4646C177.152 34.9882 175.864 35.25 174.44 35.25C172.722 35.25 171.193 34.8834 169.853 34.1504C168.512 33.4173 167.465 32.3701 166.711 31.0087C165.957 29.6473 165.58 28.0555 165.58 26.2333C165.58 24.4111 165.946 22.8193 166.679 21.4579C167.434 20.0965 168.481 19.0492 169.821 18.3162C171.162 17.5831 172.701 17.2166 174.44 17.2166C176.136 17.2166 177.644 17.5726 178.964 18.2848C180.283 18.9969 181.309 20.0127 182.042 21.3322C182.796 22.6517 183.173 24.1912 183.173 25.9505ZM177.675 24.5368C177.675 23.6152 177.361 22.8821 176.733 22.3376C176.105 21.793 175.319 21.5207 174.377 21.5207C173.476 21.5207 172.712 21.7825 172.083 22.3061C171.476 22.8298 171.099 23.5733 170.952 24.5368H177.675Z" fill="#FE724E"/>
<path d="M185.097 23.9398C185.097 21.7616 185.568 19.8242 186.51 18.1277C187.453 16.4102 188.762 15.0802 190.437 14.1377C192.134 13.1742 194.05 12.6925 196.187 12.6925C198.805 12.6925 201.046 13.3837 202.91 14.766C204.774 16.1484 206.02 18.0334 206.649 20.4211H200.742C200.302 19.4995 199.674 18.7979 198.857 18.3162C198.061 17.8344 197.15 17.5936 196.124 17.5936C194.469 17.5936 193.129 18.1696 192.103 19.3215C191.076 20.4735 190.563 22.0129 190.563 23.9398C190.563 25.8667 191.076 27.4062 192.103 28.5581C193.129 29.7101 194.469 30.2861 196.124 30.2861C197.15 30.2861 198.061 30.0452 198.857 29.5635C199.674 29.0818 200.302 28.3801 200.742 27.4585H206.649C206.02 29.8462 204.774 31.7313 202.91 33.1136C201.046 34.475 198.805 35.1557 196.187 35.1557C194.05 35.1557 192.134 34.6845 190.437 33.742C188.762 32.7785 187.453 31.4485 186.51 29.752C185.568 28.0555 185.097 26.1181 185.097 23.9398Z" fill="#FE724E"/>
<path d="M215.311 11.75V34.9986H209.939V11.75H215.311Z" fill="#FE724E"/>
<path d="M218.136 26.2019C218.136 24.4006 218.471 22.8193 219.141 21.4579C219.833 20.0965 220.765 19.0492 221.937 18.3162C223.11 17.5831 224.419 17.2166 225.865 17.2166C227.1 17.2166 228.179 17.4679 229.101 17.9706C230.043 18.4733 230.766 19.133 231.268 19.9499V17.4679H236.641V34.9986H231.268V32.5167C230.745 33.3335 230.012 33.9933 229.069 34.496C228.148 34.9986 227.069 35.25 225.833 35.25C224.409 35.25 223.11 34.8834 221.937 34.1504C220.765 33.3964 219.833 32.3387 219.141 30.9773C218.471 29.5949 218.136 28.0031 218.136 26.2019ZM231.268 26.2333C231.268 24.8928 230.891 23.8351 230.137 23.0602C229.404 22.2852 228.504 21.8977 227.435 21.8977C226.367 21.8977 225.456 22.2852 224.702 23.0602C223.969 23.8142 223.603 24.8614 223.603 26.2019C223.603 27.5423 223.969 28.6105 224.702 29.4064C225.456 30.1814 226.367 30.5688 227.435 30.5688C228.504 30.5688 229.404 30.1814 230.137 29.4064C230.891 28.6314 231.268 27.5737 231.268 26.2333Z" fill="#FE724E"/>
<path d="M251.209 17.2794C253.262 17.2794 254.895 17.9496 256.11 19.2901C257.346 20.6096 257.964 22.4318 257.964 24.7567V34.9986H252.623V25.4793C252.623 24.3064 252.319 23.3953 251.712 22.746C251.104 22.0967 250.288 21.772 249.261 21.772C248.235 21.772 247.418 22.0967 246.811 22.746C246.203 23.3953 245.9 24.3064 245.9 25.4793V34.9986H240.527V17.4679H245.9V19.7928C246.444 19.0178 247.177 18.4104 248.099 17.9706C249.02 17.5098 250.057 17.2794 251.209 17.2794Z" fill="#FE724E"/>
</svg>
