<svg width="33" height="35" viewBox="0 0 33 35" fill="none" xmlns="http://www.w3.org/2000/svg">
<g clip-path="url(#clip0)">
<path d="M29.0572 31.8037V3.19644H28.5964C25.0468 3.19644 21.4975 3.19644 17.9485 3.19644C16.6895 3.19644 15.8882 1.97043 16.4461 0.893695C16.7626 0.282681 17.2994 0.0129981 17.9805 0.0129981H21.6163C24.541 0.0129981 27.4656 0.0348912 30.3903 0.00205161C31.477 -0.00989005 32.2833 0.648892 32.2803 1.89281C32.2563 12.3086 32.2563 22.7244 32.2803 33.1401C32.2803 34.3433 31.4971 35.013 30.4103 35.006C26.2988 34.9812 22.1872 34.9951 18.0747 34.9991C17.5669 34.9991 17.1091 34.8846 16.7406 34.5194C16.5157 34.3005 16.3627 34.0191 16.3017 33.7122C16.2408 33.4053 16.2747 33.0872 16.399 32.7998C16.6724 32.1679 17.1692 31.8226 17.8583 31.8166C19.533 31.8017 21.2077 31.8106 22.8823 31.8097H29.0582L29.0572 31.8037Z" fill="#FE724E"/>
<path d="M20.3382 15.8228C19.153 14.6499 17.9674 13.4776 16.7815 12.306C16.3168 11.8472 16.1385 11.3019 16.3228 10.675C16.6643 9.51464 18.0746 9.14843 18.969 9.99429C19.6831 10.67 20.3712 11.3755 21.0723 12.0682C22.4746 13.4613 23.8792 14.8579 25.2861 16.2577C26.0873 17.0538 26.0873 17.9494 25.2861 18.7455C23.2027 20.8181 21.1168 22.8889 19.0281 24.9582C18.1156 25.8538 16.6753 25.5204 16.3238 24.3352C16.1375 23.7083 16.3148 23.1629 16.7795 22.7032C17.8759 21.6165 18.9723 20.5288 20.0687 19.4401C20.1631 19.3587 20.2636 19.2845 20.3692 19.2182L20.3171 19.0908H2.02399C0.983329 19.0839 0.282211 18.443 0.282211 17.5016C0.277815 17.2959 0.31476 17.0915 0.390884 16.9002C0.467008 16.7089 0.580781 16.5346 0.72554 16.3875C0.8703 16.2405 1.04314 16.1236 1.23393 16.0437C1.42473 15.9638 1.62965 15.9225 1.83669 15.9223C2.94846 15.9034 4.06123 15.9144 5.17301 15.9144H20.3051L20.3382 15.8228Z" fill="#FE724E"/>
</g>
<defs>
<clipPath id="clip0">
<rect width="32" height="35" fill="white" transform="translate(0.282227)"/>
</clipPath>
</defs>
</svg>
